<svg alt="logotipo de mastrail" xmlns="http://www.w3.org/2000/svg" viewBox="0 0 960 399.4"><defs><style>.cls-1{fill:#a2ea2f;}</style></defs><title>logo</title><g id="Capa_2" data-name="Capa 2">

<path class="letra" d="M124.67,342.07v24.87q0,41.47,32.92,41.47,13,0,26.7-7.52v60.65q-18.14,9.59-54.69,9.59Q43,471.13,43,381.2V342.07Z" transform="translate(0 -71.74)"/>

<polygon class="cls-1" points="43.02 240.85 43.02 191.89 0 191.89 0 127.52 43.02 127.52 43.02 70.24 124.67 46.91 124.67 127.52 184.28 127.52 184.28 191.89 124.67 191.89 124.67 240.85 43.02 240.85"/>

<path class="letra" d="M403.54,273.12q-14.77-8-34.47-8-26.7,0-41.73,19.57t-15,53.26V464.66h-81.9V199.26h81.9V248.5h1q19.44-53.9,70-53.91,13,0,20.22,3.11Z" transform="translate(0 -71.74)"/>

<path class="letra"
d="M662.46,464.66H585v-38.1h-1q-26.7,44.58-79,44.58-38.62,0-60.78-21.9t-22.16-58.44q0-77.23,91.49-89.16L585.49,292q0-43.54-47.17-43.54-47.43,0-90.19,28.25V215.07q17.11-8.81,46.78-15.55t54-6.74q113.52,0,113.52,113.26Zm-77-107.82V339l-48.21,6.22q-39.91,5.19-39.91,36,0,14,9.72,22.94t26.3,8.94q23.07,0,37.58-15.94T585.49,356.84Z" transform="translate(0 -71.74)"/>

<path class="letra" d="M960,464.66H878.1V71.74H960Z" transform="translate(0 -71.74)"/>

<path class="letra" d="M811.23,464.66h-81.9V194.59h81.9Z" transform="translate(0 -71.74)"/>

<polygon class="cls-2" points="770.28 46.91 811.23 109.46 729.33 109.46 770.28 46.91"/></g></svg>
